<svg xmlns="http://www.w3.org/2000/svg" viewBox="0 0 32 32" shape-rendering="crispEdges">
  <rect width="32" height="32" fill="none"/>
  <rect x="6" y="5" width="20" height="22" fill="#3d3830"/>
  <rect x="5" y="6" width="10" height="20" fill="#8e5f2f"/>
  <rect x="17" y="6" width="10" height="20" fill="#8e5f2f"/>
  <rect x="7" y="7" width="8" height="17" fill="#fff4d8"/>
  <rect x="17" y="7" width="8" height="17" fill="#fff4d8"/>
  <rect x="15" y="6" width="2" height="20" fill="#5a3b26"/>
  <rect x="9" y="10" width="4" height="2" fill="#c69a52"/>
  <rect x="9" y="14" width="5" height="2" fill="#c69a52"/>
  <rect x="9" y="18" width="3" height="2" fill="#c69a52"/>
  <rect x="19" y="10" width="4" height="2" fill="#c69a52"/>
  <rect x="18" y="14" width="5" height="2" fill="#c69a52"/>
  <rect x="20" y="18" width="3" height="2" fill="#c69a52"/>
  <rect x="6" y="24" width="9" height="2" fill="#d8c896"/>
  <rect x="17" y="24" width="9" height="2" fill="#d8c896"/>
  <rect x="24" y="4" width="3" height="5" fill="#d65f43"/>
  <rect x="25" y="9" width="2" height="3" fill="#8e3528"/>
</svg>
